<?xml version="1.0" encoding="UTF-8" standalone="no"?>
<svg xmlns="http://www.w3.org/2000/svg" xmlns:xlink="http://www.w3.org/1999/xlink" width="128" height="128" viewBox="0 0 128 128">
  <linearGradient id="b" x1="63.92" x2="63.92" y1="154.565" y2="-100.935" gradientUnits="userSpaceOnUse">
    <stop offset="0" stop-color="#fff"/>
    <stop offset=".258" stop-color="#f1f1f1"/>
    <stop offset=".74" stop-color="#cecece"/>
    <stop offset=".86" stop-color="#c4c4c4"/>
  </linearGradient>
  <linearGradient id="a">
    <stop offset="0" stop-color="#b3b3b3"/>
    <stop offset="1" stop-color="#828282"/>
  </linearGradient>
  <linearGradient id="c" x1="-26.333" x2="56.166" y1="-26.333" y2="56.166" gradientUnits="userSpaceOnUse" xlink:href="#a"/>
  <linearGradient id="d" x1="43.023" x2="204.007" y1="25.421" y2="111.065" gradientUnits="userSpaceOnUse">
    <stop offset="0" stop-color="#fff"/>
    <stop offset=".503" stop-color="#e7e7e7"/>
    <stop offset="1" stop-color="#d4d4d4"/>
  </linearGradient>
  <linearGradient id="e" x1="-56.222" x2="74.82" y1="10.651" y2="10.651" gradientUnits="userSpaceOnUse">
    <stop offset="0" stop-color="#fff"/>
    <stop offset="1" stop-color="red"/>
  </linearGradient>
  <radialGradient id="f" cx="108.467" cy="118.249" r="34.736" gradientUnits="userSpaceOnUse">
    <stop offset="0"/>
    <stop offset="1"/>
  </radialGradient>
  <linearGradient id="g" x1="104.017" x2="95.088" y1="98.181" y2="135.794" gradientUnits="userSpaceOnUse">
    <stop offset="0" stop-color="#fff"/>
    <stop offset="1" stop-color="#ccc"/>
  </linearGradient>
  <linearGradient id="h" x1="82.309" x2="96.104" y1="88.093" y2="101.888" gradientUnits="userSpaceOnUse" xlink:href="#a"/>
  <path fill="#fff" d="m121.164 1.052h-114.328v125.896h80.701l33.627-33.627z"/>
  <path fill="url(#b)" d="m117.734 4.019h-107.468l-.16 122.654h76.457l31.172-31.252v-91.402z"/>
  <path fill="url(#c)" d="m121.164.552h-114.828v126.896h81.408l33.92-33.92v-92.976zm-.5 1v91.562c-.289.289-33.045 33.045-33.334 33.334-.41 0-79.01 0-79.994 0 0-.988 0-123.909 0-124.896.986 0 112.342 0 113.328 0z"/>
  <path fill="url(#d)" d="m118.006 15.223v-11.283h-107.807l-.096 65.34c9.975 4.547 21.151 7.096 32.954 7.096 37.345 0 68.398-27.5 74.949-61.153z"/>
  <path fill="none" d="m72.158 83.212v-12.683c-8.568 3.576-17.923 5.638-27.732 5.815v6.867h27.732z"/>
  <path fill="none" d="m59.562 44.832c-3.404 2.08-6.689 6.015-9.764 11.694-3.102 5.73-4.674 11.508-4.674 17.173 0 3.169.682 4.568 1.254 5.186.738.798 1.577 1.138 2.804 1.138 3.207 0 6.845-1.571 10.815-4.67 4.09-3.188 7.158-7.917 9.12-14.059 0 0 5.252-16.324 6.19-19.24-1.517-.177-2.854-.296-3.85-.296-4.554 0-8.556 1.034-11.895 3.074z"/>
  <path fill="none" d="m42.301 76.366c.279 1.989.896 3.499 1.878 4.559 1.307 1.411 2.944 2.098 5.004 2.098 3.891 0 8.151-1.785 12.66-5.305 1.867-1.455 3.529-3.201 5.002-5.197-7.485 2.487-15.479 3.855-23.787 3.855-.253 0-.504-.008-.757-.01z"/>
  <path fill="url(#e)" d="m117.397 17.023h-107.384v-12.744h107.385v12.744z"/>
  <path fill="url(#f)" d="m85.191 90.976v35.754h1.793l33.639-33.639v-2.115z" opacity=".1"/>
  <path fill="#fff" d="m87.537 126.948 33.627-33.627h-33.627z"/>
  <path fill="url(#g)" d="m89.865 125.056 29.594-29.592h-29.594z"/>
  <path fill="url(#h)" d="m87.537 92.821c-.277 0-.5.223-.5.5v33.627c0 .203.121.385.309.463.186.076.402.033.545-.109l33.627-33.627c.143-.145.186-.359.109-.545-.078-.188-.26-.309-.463-.309zm32.42 1c-1.58 1.578-30.342 30.34-31.92 31.92 0-2.209 0-30.986 0-31.92z"/>
  <g opacity=".35">
    <path fill="none" d="m60.326 29.604c-8.263 7.357 27.625 72.342 36.217 55.654 9.664-18.773-86.067 20.969-65.423 26.348 24.189 6.301 44.61-95.719 29.206-82.002z"/>
    <path d="m58.713 28.594c-6.105 6.004.619 18.865 3.332 24.984 4.958 11.187 11.438 22.806 20.215 31.464 2.578 2.545 5.771 5.248 9.609 5.158 3.725-.084 6.83-3.348 7.814-6.746 2.059-7.121-9.295-5.322-12.873-4.686-10.656 1.891-21.09 5.992-30.992 10.246-9.019 3.877-18.561 8.207-26.104 14.617-1.979 1.682-4.291 4.051-4.186 6.842.102 2.699 4.053 3.512 6.081 3.611 9.033.439 15.488-8.787 19.479-15.633 8.849-15.182 13.694-33.551 16.252-50.818.836-5.661 1.93-12.352.383-17.991-1.338-4.888-5.891-3.731-9.01-1.048-3.028 2.607.926 4.001 3.225 2.023.556-.48-.585-.188-.252.043.414.287.818 1.743.975 2.562.741 3.895.285 8.062-.142 11.963-1.322 12.122-4.39 24.218-8.435 35.702-3.197 9.078-7.412 21.291-15.53 27.248-2.117 1.553-5.042 2.209-7.343.598-.438-.307-.364-.635-.245-.904.284-.641 1.314-1.615 2.278-2.434 7.445-6.328 17.506-10.311 26.423-14 9.249-3.83 19.304-7.818 29.349-8.809 1.711-.17 5.172-.361 5.504 1.084.127.549-.221 1.635-.689 2.141-.443.482.494-.055-.133-.041-.684.018-1.447-.385-2.037-.684-4.307-2.176-7.574-6.553-10.412-10.305-3.951-5.223-7.33-10.888-10.396-16.668-2.932-5.524-5.555-11.271-7.444-17.24-.719-2.273-1.289-4.604-1.554-6.977-.086-.774-.107-1.545-.027-2.318.051-.496.561-1.406.11-.96 2.834-2.789-1.026-4.185-3.225-2.024z" opacity=".35"/>
  </g>
  <path fill="none" d="m57.035 28.072c-8.263 7.358 27.627 72.343 36.219 55.654 9.664-18.771-86.068 20.971-65.422 26.348 24.187 6.3 44.609-95.72 29.203-82.002z"/>
  <path fill="#f8310e" d="m55.423 27.061c-6.105 6.004.619 18.867 3.332 24.986 4.958 11.185 11.437 22.804 20.214 31.464 2.58 2.543 5.771 5.246 9.609 5.156 3.727-.084 6.832-3.348 7.814-6.746 2.061-7.119-9.291-5.32-12.873-4.686-10.654 1.891-21.089 5.993-30.989 10.246-9.02 3.877-18.562 8.209-26.104 14.617-1.979 1.682-4.291 4.051-4.185 6.842.101 2.699 4.053 3.512 6.081 3.611 9.033.439 15.487-8.785 19.479-15.633 8.849-15.18 13.695-33.551 16.251-50.818.838-5.66 1.931-12.352.384-17.991-1.34-4.889-5.892-3.733-9.011-1.047-3.029 2.607.925 4 3.224 2.021.556-.479-.586-.187-.251.044.413.286.819 1.745.974 2.562.741 3.896.285 8.063-.142 11.963-1.322 12.124-4.39 24.218-8.434 35.704-3.196 9.076-7.412 21.289-15.53 27.248-2.116 1.553-5.042 2.207-7.343.596-.438-.305-.365-.633-.246-.904.283-.641 1.314-1.613 2.278-2.432 7.446-6.328 17.506-10.311 26.425-14.002 9.25-3.83 19.301-7.818 29.35-8.809 1.709-.17 5.17-.359 5.502 1.084.127.549-.221 1.635-.688 2.143-.445.48.492-.057-.135-.043-.684.018-1.447-.385-2.037-.684-4.305-2.176-7.574-6.553-10.412-10.303-3.951-5.225-7.33-10.89-10.396-16.668-2.93-5.525-5.556-11.271-7.443-17.24-.719-2.275-1.29-4.605-1.554-6.978-.086-.772-.107-1.545-.027-2.318.052-.496.561-1.405.11-.961 2.834-2.787-1.026-4.183-3.224-2.021z"/>
  <g fill="#fff">
    <path d="m13.097 15.115v-9.375h3.038c1.151 0 1.902.047 2.251.141.537.141.987.447 1.35.918.362.472.543 1.081.543 1.828 0 .577-.105 1.061-.313 1.454-.209.393-.475.701-.797.926-.323.224-.65.373-.983.444-.453.09-1.108.135-1.965.135h-1.236v3.529zm1.887-7.795v2.685h1.038c.748 0 1.248-.049 1.5-.148s.45-.254.593-.465.214-.457.214-.736c0-.344-.1-.628-.301-.852s-.455-.364-.763-.42c-.225-.042-.68-.064-1.364-.064z"/>
    <path d="m21.827 5.74h3.458c.78 0 1.375.06 1.784.179.55.162 1.021.45 1.413.863.392.414.69.92.895 1.52.205.599.307 1.338.307 2.216 0 .772-.096 1.437-.288 1.995-.234.683-.569 1.234-1.003 1.657-.329.32-.772.569-1.33.748-.417.133-.976.198-1.675.198h-3.561zm1.888 1.58v6.214h1.417c.531 0 .913-.03 1.148-.089.309-.077.563-.207.767-.39.203-.184.369-.486.497-.906s.192-.993.192-1.719-.064-1.282-.192-1.67-.308-.691-.538-.909c-.231-.218-.524-.365-.879-.441-.267-.06-.786-.09-1.559-.09z"/>
    <path d="m31.279 15.115v-9.375h6.43v1.58h-4.542v2.225h3.929v1.58h-3.929v3.99z"/>
  </g>
  <path fill="none" d="m128 128h-128v-128h128z"/>
</svg>
